<svg version="1.2" xmlns="http://www.w3.org/2000/svg" viewBox="0 0 200 200" width="200" height="200">
  <style>.mimacom-a{fill:currentColor}</style>
  <path class="mimacom-a"
    d="m48.4 94.5h5.6v18.4h-5.6zm55.6 0h5.6v18.4h-5.6v-1.8c-1.4 1.4-3.1 2.3-5.1 2.3-5.6 0-9.4-4.1-9.4-9.8 0-5.7 3.9-9.7 9.4-9.7 2.2 0 3.9 0.8 5.1 2zm0 9.3v-0.3c-0.1-2.5-2.1-4.5-4.7-4.5-2.6 0-4.8 2.1-4.8 4.7 0 2.6 2.2 4.6 4.8 4.6 2.5 0 4.6-2 4.7-4.5zm-68.5-9.9c4.7 0 8.5 3.7 8.5 8.3l-0.1 10.7h-5.5v-10.9q0-0.5-0.3-1-0.2-0.5-0.6-0.9-0.4-0.3-0.9-0.5-0.5-0.2-1.1-0.2c-1.5 0-2.7 1.2-2.8 2.7v10.8h-5.6v-10.9c0-1.5-1.2-2.6-2.8-2.6-1.6 0-2.9 1.2-2.9 2.8v10.7h-5.5v-10.9c0-4.5 3.8-8.1 8.4-8.1q0.8 0 1.5 0.1 0.8 0.2 1.5 0.4 0.7 0.3 1.4 0.7 0.6 0.4 1.2 0.9 0.6-0.5 1.2-0.9 0.7-0.4 1.4-0.7 0.7-0.2 1.5-0.4 0.8-0.1 1.5-0.1zm42.7 0c4.7 0 8.4 3.7 8.4 8.3v10.7h-5.5v-10.9q-0.1-0.5-0.3-1-0.2-0.5-0.6-0.9-0.4-0.3-0.9-0.5-0.5-0.2-1.1-0.2c-1.5 0-2.8 1.2-2.8 2.7v10.8h-5.6v-10.9c-0.1-1.5-1.3-2.6-2.8-2.6-1.6 0-2.9 1.2-2.9 2.8v10.7h-5.6v-10.9c0.1-4.5 3.9-8.1 8.5-8.1q0.7 0 1.5 0.1 0.8 0.1 1.5 0.4 0.7 0.3 1.4 0.7 0.6 0.4 1.2 0.9 0.6-0.5 1.2-0.9 0.7-0.4 1.4-0.7 0.7-0.3 1.5-0.4 0.7-0.1 1.5-0.1zm97.5 0c4.7 0 8.4 3.7 8.4 8.3v10.7h-5.5v-10.9q-0.1-0.5-0.3-1-0.2-0.5-0.6-0.9-0.4-0.3-0.9-0.5-0.5-0.2-1.1-0.2c-1.5 0-2.8 1.2-2.8 2.7v10.8h-5.6v-10.9c-0.1-1.5-1.3-2.6-2.8-2.6-1.6 0-2.9 1.2-2.9 2.8v10.7h-5.6v-10.9c0.1-4.5 3.8-8.1 8.4-8.1q0.8 0 1.6 0.1 0.7 0.1 1.5 0.4 0.7 0.3 1.3 0.7 0.7 0.4 1.3 0.9 0.5-0.5 1.2-0.9 0.7-0.4 1.4-0.7 0.7-0.3 1.5-0.4 0.7-0.1 1.5-0.1zm-124.6-1.2c-1.8 0-3.2-1.4-3.2-3.1 0-1.7 1.4-3 3.2-3 1.7 0 3.1 1.3 3.1 3 0 1.7-1.4 3.1-3.1 3.1zm92.3 20.6c-5.5 0-10-4.3-10-9.7 0-5.5 4.5-9.8 10-9.8 5.5 0 9.9 4.3 9.9 9.8 0 5.4-4.4 9.7-9.9 9.7zm4.7-9.7c0-2.6-2.1-4.7-4.7-4.7-2.7 0-4.8 2.1-4.8 4.7 0 2.5 2.1 4.6 4.8 4.6 2.6 0 4.7-2.1 4.7-4.6zm-25.5 4.6q0.6 0 1.3-0.2 0.7-0.2 1.2-0.5 0.6-0.4 1-0.9 0.5-0.5 0.8-1.1l4.6 2.3c-1.6 3.3-5 5.5-8.9 5.5-5.5 0-10-4.3-10-9.7 0-5.5 4.5-9.8 10-9.8 3.7 0 7 2 8.7 5q-0.6 0.3-1.2 0.6-0.6 0.3-1.1 0.6-0.6 0.3-1.2 0.6-0.6 0.3-1.1 0.6c-0.9-1.4-2.4-2.3-4.1-2.3-2.7 0-4.8 2.1-4.8 4.7 0 2.5 2.1 4.6 4.8 4.6z" />
</svg>
