<svg version="1.2" xmlns="http://www.w3.org/2000/svg" viewBox="0 0 850 850" width="850" height="850"><style>.a{fill:#00924b}.b{fill:#fefefe}</style><path fill-rule="evenodd" class="a" d="m850 0v850h-850v-850z"/><path fill-rule="evenodd" class="b" d="m703.5 630.4c0 7.3 0 6.6-1.9 13.1-8.7 24.9-24.9 41.9-50.7 49.1l-4.8 1.3c-21.5 2.3-40.4-6.2-59.4-14.6-9-4.1-278.2-138.5-339-172.9-41.1-23.3-85.9-41.5-118.9-77.4q-3-3.5-5.9-7c13.7-1 38.8 6.1 59.6 16.4 69.9 34.6 383.2 198.5 385.9 197.1-1-38.2 16.4-63.8 54-75.2-11.9-19.3-223.1-290.3-231.9-302-3.1-4.2-6.9-5.3-12.1-4.9-14.9 1.1-53.3 0.9-55 4.6-1.2 2.7 2.3 6.2 4.3 8.8 8.5 10.9 11.2 22.9 6.4 36-5 13.8-15.1 23.2-27.6 30.4-4.2 2.4-4.7-0.9-6.2-2.9-5.5-7.9-62.7-92-65.3-96.2-16.1-24.9-11.1-48.3 4.8-71.1 19.8-28.5 54.8-42.3 88.3-34.2 9.5 2.3 17.6 7.7 24.9 14.2 24.2 21.9 333.8 439.5 339.9 449.3 7.3 11.7 10.8 24.4 10.6 38.1zm-99.8-3c-0.1 17.1 13.8 31 30.8 31 17 0 31-14 31-30.9 0.1-17-13.9-30.9-31-30.9-17.1-0.1-30.8 13.6-30.8 30.8zm-300.3-390.5c7.1-12.3 13.6-22.8 19.2-33.7 3.9-7.7 0.1-21-6.5-26.4-8.4-6.8-19.8-6.8-27.4-0.1-7.7 6.9-9.3 20-3.3 28.8 6.5 9.4 13.7 18.3 18 31.4z"/></svg>