<svg version="1.2" xmlns="http://www.w3.org/2000/svg" viewBox="0 0 128 128" width="128" height="128">
  <style>.axios-a{fill:currentColor}</style>
  <path class="axios-a" d="m63.5 56.5l-4.7 3.8h3.1v12.5l1.6-1.3z" />
  <path class="axios-a" d="m64.9 70.4l4.8-4h-3.2v-12.2l-1.6 1.2z" />
  <path class="axios-a"
    d="m124.4 58.7q0.8 0.4 1.2 0.7l1.7-3.2q-1.3-0.8-3.1-1.4-1.8-0.6-3.8-0.6-2 0-3.7 0.6-1.6 0.7-2.6 2-0.9 1.2-0.9 3.1 0 2.1 1.3 3.3 1.4 1.1 4.2 1.8 2.3 0.6 3.6 1.1 1.4 0.4 1.4 1.5 0 1.6-3 1.6-1.5 0-2.8-0.4-1.4-0.3-2.4-0.8-0.9-0.6-1.4-1l-1.7 3.4q1.7 1.1 3.9 1.7 2.1 0.7 4.4 0.7 1.9 0 3.6-0.6 1.6-0.5 2.6-1.7 1.1-1.3 1.1-3.3 0-1.6-0.8-2.7-0.8-1-2.2-1.6-1.4-0.6-3.3-1.1-2.2-0.5-3.4-1-1.1-0.4-1.1-1.4 0-1.7 3.1-1.7 1.1 0 2.2 0.3 1.1 0.3 1.9 0.7z" />
  <path class="axios-a"
    d="m90 72.7q-2.2 0-3.9-0.8-1.8-0.8-3.1-2.1-1.2-1.3-1.9-3-0.7-1.6-0.7-3.4 0-1.8 0.7-3.4 0.7-1.7 2-3 1.3-1.3 3.1-2 1.8-0.8 3.9-0.8 2.1 0 3.9 0.8 1.7 0.8 3 2.2 1.3 1.3 2 2.9 0.6 1.7 0.6 3.4 0 1.8-0.7 3.5-0.7 1.6-2 2.9-1.3 1.3-3 2-1.8 0.8-3.9 0.8zm-5.6-9.3q0 1.5 0.7 2.8 0.6 1.3 1.9 2.2 1.3 0.8 3 0.8 1.8 0 3.1-0.9 1.2-0.9 1.9-2.2 0.6-1.3 0.6-2.7 0-1.5-0.7-2.8-0.7-1.3-1.9-2-1.3-0.9-3-0.9-1.8 0-3.1 0.9-1.2 0.8-1.9 2.1-0.6 1.3-0.6 2.7z" />
  <path class="axios-a"
    d="m0 72.5l8-18.2h3.2l8 18.2h-4.2l-1.9-4.2h-7.1l-1.8 4.2zm9.6-13.4l-2.7 5.7h5.3z" />
  <path class="axios-a"
    d="m34.6 54.3l5 6.5 5.1-6.5h4.2l-7.2 9.2 7 9h-4.3l-4.8-6.2-4.7 6.2h-4.4l7-9-7.2-9.2z" />
</svg>
