<svg version="1.2" xmlns="http://www.w3.org/2000/svg" viewBox="0 0 128 128" width="128" height="128">
  <style>.electron-a{fill:currentColor}</style>
  <path class="electron-a"
    d="m15.1 63.9q0.2 0 0.4-0.1 0.1 0 0.3 0 0.2-0.1 0.4-0.2 0.1 0 0.3-0.1 0.5-0.3 0.8-0.7 0.4-0.5 0.5-1 0.1-0.5 0.1-1.1-0.1-0.6-0.4-1c-4.7-8.2-5.1-14.9-2.1-20 4.1-7 15.3-9.6 30.1-6.9q0.6 0.1 1.1 0 0.6-0.2 1-0.5 0.5-0.3 0.8-0.8 0.3-0.4 0.4-1 0.1-0.5 0-1.1-0.2-0.5-0.5-1-0.3-0.4-0.8-0.7-0.4-0.3-1-0.4c-8.3-1.5-16-1.5-22.1 0.1-6.4 1.6-11.2 4.9-13.9 9.5-4 6.9-3.6 15.6 2.1 25.5q0.2 0.4 0.5 0.6 0.3 0.3 0.6 0.5 0.3 0.2 0.7 0.3 0.3 0.1 0.7 0.1z" />
  <path class="electron-a"
    d="m93.7 32.1c9.2 0.2 15.1 2.7 18 7.7 4 7 0.7 17.9-9 29.2-0.3 0.4-0.5 0.9-0.6 1.5-0.1 0.5 0 1 0.2 1.5 0.2 0.5 0.6 0.9 1.1 1.2 0.4 0.3 0.9 0.4 1.5 0.4q0.3 0 0.6 0 0.3-0.1 0.6-0.2 0.2-0.2 0.5-0.3 0.2-0.2 0.4-0.5c5.5-6.4 9.3-12.9 11-19 1.7-6.2 1.2-12-1.5-16.6-3.9-6.8-11.4-10.3-22.7-10.5h-0.1c-0.7 0-1.4 0.3-2 0.8-0.5 0.6-0.8 1.3-0.8 2 0 0.8 0.3 1.5 0.8 2 0.5 0.5 1.3 0.8 2 0.8z" />
  <path class="electron-a"
    d="m83.7 109.4q-0.5-0.2-1.1-0.3-0.5-0.1-1.1 0-0.5 0.2-1 0.5-0.4 0.3-0.7 0.8c-4.7 7.7-10.5 12-16.2 12-8.2 0-16.1-8.4-21.1-22.4q-0.2-0.5-0.6-0.9-0.4-0.4-0.9-0.6-0.5-0.3-1.1-0.3-0.5 0-1 0.2-0.6 0.1-1 0.5-0.4 0.4-0.6 0.9-0.3 0.5-0.3 1.1 0 0.5 0.1 1c2.9 8 6.8 14.5 11.2 19 4.6 4.6 9.9 7.1 15.3 7.1 7.8 0 15.3-5.2 21-14.7q0.3-0.5 0.4-1 0.1-0.6-0.1-1.1-0.1-0.6-0.4-1-0.4-0.5-0.8-0.8z" />
  <path class="electron-a"
    d="m113.8 87.7c2.9 0 5.6 1.3 7.3 3.6 1.8 2.3 2.3 5.3 1.6 8-0.8 2.8-2.8 5-5.5 6.1-2.7 1-5.7 0.8-8.2-0.7-4.4 2.4-10.1 3.6-16.7 3.6q-1.3 0-2.6 0-1.2-0.1-2.5-0.2-1.2-0.1-2.5-0.2-1.2-0.2-2.5-0.4c-11.2-1.8-23.2-6.2-34.7-12.8-9.9-5.6-18.7-12.6-25.5-20q-0.4-0.4-0.6-0.9-0.2-0.5-0.2-1.1 0-0.6 0.3-1.1 0.2-0.5 0.6-0.8 0.5-0.4 1-0.6 0.5-0.2 1.1-0.2 0.5 0.1 1 0.3 0.5 0.2 0.9 0.6c6.4 7 14.8 13.6 24.2 19 20.6 11.8 43 16 54.9 10.4-0.6-1.4-0.8-2.9-0.6-4.4 0.1-1.5 0.6-2.9 1.5-4.2 0.8-1.2 2-2.3 3.3-3 1.4-0.7 2.8-1 4.4-1zm-0.1 12.7c1.7 0 3.2-1.1 3.6-2.8 0.3-1.6-0.5-3.3-2-4-1.5-0.8-3.3-0.4-4.3 0.9-1.1 1.3-1.1 3.2-0.1 4.5q0.1 0.1 0.2 0.1 0 0.1 0.1 0.2 0.1 0.1 0.2 0.2 0 0 0.1 0.1 0.2 0.2 0.5 0.4 0.3 0.1 0.6 0.2 0.3 0.1 0.5 0.2 0.3 0 0.6 0zm0 0q0 0 0 0zm0 0q0 0 0 0 0 0 0 0z" />
  <path class="electron-a"
    d="m22.4 95.9c0.5 4.5-2.4 8.7-6.8 9.9-4.3 1.2-8.9-1-10.8-5.1-1.9-4.1-0.4-9 3.3-11.5-0.7-15.4 15.4-35.6 39.5-49.4 10-5.7 19.7-9.6 29.6-11.7 0.8-0.1 1.6 0 2.2 0.4 0.6 0.4 1.1 1 1.2 1.8 0.2 0.7 0.1 1.5-0.4 2.1-0.4 0.6-1 1.1-1.8 1.2-9.4 2-18.5 5.6-28 11.1-10.8 6.2-20.4 14-27 22.1-6.1 7.5-9.5 14.8-9.6 20.9 4.5 0.2 8.2 3.7 8.6 8.2zm-7.8 4.2q0.7-0.2 1.2-0.7 0.5-0.5 0.8-1.2 0.2-0.6 0.2-1.4c0-1.4-0.8-2.7-2.2-3.2-1.3-0.6-2.8-0.3-3.9 0.7-1 1-1.3 2.6-0.7 3.9 0.5 1.3 1.8 2.2 3.2 2.2q0.8 0 1.4-0.3z" />
  <path class="electron-a"
    d="m55.1 13c-1.5-3.4-0.8-7.3 1.8-10 2.6-2.7 6.5-3.5 10-2.2 3.5 1.4 5.8 4.6 5.9 8.3 6.6 3.7 12.2 11.1 16.3 21.5 4.2 10.6 6.5 23.3 6.5 36.7 0 11.2-1.6 21.8-4.6 31.2q-0.2 0.6-0.5 1-0.4 0.4-0.9 0.7-0.5 0.2-1 0.3-0.6 0-1.1-0.1-0.3-0.1-0.5-0.2-0.3-0.2-0.5-0.3-0.2-0.2-0.4-0.4-0.1-0.3-0.3-0.5-0.1-0.2-0.2-0.5-0.1-0.3-0.1-0.6 0-0.2 0-0.5 0.1-0.3 0.1-0.5c2.8-8.9 4.3-19 4.3-29.6 0-12.3-1.9-24-5.6-33.8-3.4-8.8-8-15.5-13.2-18.8q-0.6 0.9-1.4 1.6-0.9 0.8-1.9 1.3-1 0.5-2 0.8-1.1 0.2-2.2 0.2c-3.8 0-7.1-2.2-8.5-5.6zm7.1-6.8q-0.7 0.2-1.2 0.7-0.5 0.5-0.8 1.2-0.2 0.6-0.2 1.4c0 1.4 0.8 2.7 2.2 3.2 1.3 0.6 2.8 0.3 3.9-0.7 1-1 1.3-2.6 0.7-3.9-0.5-1.3-1.8-2.2-3.2-2.2q-0.8 0-1.4 0.3z" />
  <path class="electron-a"
    d="m62.1 60.5c-1.7 0.4-3.2 1.4-4.2 2.8-1 1.3-1.5 3.1-1.3 4.8 0.2 1.7 1 3.3 2.3 4.4 1.3 1.1 2.9 1.8 4.6 1.8q0.2 0 0.4 0 0.2-0.1 0.4-0.1 0.2 0 0.4 0 0.1 0 0.3-0.1c1.8-0.4 3.5-1.4 4.5-3 1-1.6 1.3-3.4 0.9-5.3-0.3-1.8-1.5-3.4-3-4.4-1.6-1-3.5-1.3-5.3-0.9z" />
</svg>
