<svg version="1.2" xmlns="http://www.w3.org/2000/svg" viewBox="0 0 128 128" width="128" height="128">
  <style>.eslint-a{fill:#8080f2}.eslint-b{fill:currentcolor}</style>
  <path class="eslint-a"
    d="m87.6 49.1l-23.6-13.6c-0.6-0.3-1.3-0.3-1.9 0l-23.6 13.6c-0.6 0.4-0.9 1-0.9 1.7v27.3c0 0.6 0.3 1.3 0.9 1.6l23.6 13.6c0.6 0.4 1.3 0.4 1.9 0l23.6-13.6c0.6-0.3 1-1 1-1.6v-27.3c0-0.7-0.4-1.3-1-1.7z" />
  <path class="eslint-b"
    d="m1.7 61.6l28.2-49.1c1-1.8 2.9-3.1 5-3.1h56.4c2 0 3.9 1.3 4.9 3.1l28.3 49c1 1.7 1 4 0 5.7l-28.3 48.7c-1 1.8-2.9 2.7-4.9 2.7h-56.4c-2.1 0-4-0.9-5-2.7l-28.2-48.7c-1-1.8-1-3.9 0-5.6zm23.4 23.6c0 0.7 0.4 1.3 1 1.7l35.9 20.7c0.7 0.4 1.4 0.4 2.1 0l35.9-20.7c0.7-0.4 1.1-1 1.1-1.7v-41.5c0-0.7-0.4-1.4-1.1-1.7l-35.9-20.8c-0.6-0.3-1.4-0.3-2 0l-36 20.8c-0.6 0.3-1 1-1 1.7z" />
</svg>
