<svg version="1.2" xmlns="http://www.w3.org/2000/svg" viewBox="0 0 128 128" width="128" height="128">
  <style>.jss-a{fill:currentColor}</style>
  <path class="jss-a"
    d="m0 13.3h102.4v101.4h-102.4zm1.9 99.4h98.6v-97.5h-98.6c0 0 0 97.5 0 97.5z" />
  <path class="jss-a"
    d="m68.6 92.3c2 3.4 4.7 5.8 9.3 5.8 3.9 0 6.5-2 6.5-4.7 0-3.2-2.6-4.4-6.9-6.3l-2.4-1c-6.8-2.9-11.4-6.5-11.4-14.2 0-7.1 5.4-12.6 13.9-12.6 6 0 10.3 2.1 13.5 7.6l-7.4 4.8c-1.6-3-3.4-4.1-6.1-4.1-2.8 0-4.5 1.8-4.5 4.1 0 2.8 1.7 4 5.8 5.7l2.3 1c8.1 3.5 12.6 7 12.6 14.9 0 8.5-6.7 13.2-15.7 13.2-8.8 0-14.4-4.2-17.2-9.7 0 0 7.7-4.5 7.7-4.5zm34.1 0c2.1 3.4 4.7 5.8 9.4 5.8 3.9 0 6.4-2 6.4-4.7 0-3.2-2.6-4.4-6.9-6.3l-2.3-1c-6.9-2.9-11.4-6.5-11.4-14.2 0-7.1 5.4-12.6 13.9-12.6 6 0 10.3 2.1 13.4 7.6l-7.4 4.8c-1.6-3-3.3-4.1-6-4.1-2.8 0-4.6 1.8-4.6 4.1 0 2.8 1.8 4 5.8 5.7l2.4 1c8.1 3.5 12.6 7 12.6 14.9 0 8.5-6.7 13.2-15.7 13.2-8.8 0-14.5-4.2-17.3-9.7zm-67.6 0.8c1.5 2.7 2.9 4.9 6.1 4.9 3.1 0 5.1-1.2 5.1-5.9v-32.2h9.5v32.3c0 9.8-5.8 14.3-14.2 14.3-7.6 0-11.9-4-14.2-8.7l7.7-4.7q0 0 0 0z" />
</svg>
