<svg version="1.2" xmlns="http://www.w3.org/2000/svg" viewBox="0 0 128 128" width="128" height="128">
  <style>.mariadb-a{fill:#1f305f}.mariadb-b{fill:#c0765a}</style>
  <path fill-rule="evenodd" class=".mariadb-a"
    d="m125 21c-1.9 0-1.4 0.9-5.6 2-4.3 1-9.5 0.4-14.1 2.3-12.1 5.1-14.1 24.7-28.5 32.3-9.4 5.3-19 6.5-27.6 9.3-6.9 2.7-11.2 4.6-16.3 8.9-3.9 3.4-4.9 6.7-9 11-4.1 5.6-19.9 0.6-24 7.7 2.2 1.4 3.4 1.8 7.2 1.3-0.8 1.5-5.8 3.4-4.9 5.6 0 0 12 2.2 22.1-3.9 4.7-1.9 9.1-6 16.4-7 9.5-1.2 20.1 2 31.6 2.9-2.4 4.7-4.8 7.5-7.4 11.3-0.8 0.9 0.6 1.7 3.4 1.2 5-1.3 8.6-2.6 12.2-5.1 4.7-3.2 6.7-6.2 10.7-10.9 3.4 5.5 15.5 6.7 18 2-4.6-2-5.6-12.2-4-16.6 1.8-4.2 3.2-10.1 4.7-15.6 1.3-5 2.2-12.5 3.8-16.4 1.9-4.8 5.7-6.3 8.6-8.9 2.8-2.6 5.6-4.7 5.5-10.5 0-1.9-1-3-2.8-2.9z" />
  <path class=".mariadb-b"
    d="m3.5 100.4c7.5 0.2 9.5 0 15.3-2.5 5-2.2 11.7-8 17.6-9.9 8.6-2.8 17.9-2.4 27.1-1.3 3.1 0.4 6.1 0.9 8.4 0.6 3.4-2.1 3.6-7.8 5.7-8.3-0.6 11.1-5.3 18.2-10.1 24.7 10-1.8 16.7-8 20.8-15.8 1.2-2.4 3.3-6.2 4.2-8.9 0.7 1.8-1 2.9-0.2 4.8 6.5-5.3 9.5-11.4 12.2-20.3 3-10.3 6.1-19.2 8.1-22.2 1.9-3 4.8-4.8 7.5-6.7 3.1-2.2 5.9-4.4 6.4-8.6-3.3-0.3-4-1-4.5-2.7-1.7 1-3.2 1.2-4.8 1.2-1.5 0-3.1 0-5.1 0.2-16.3 1.7-17 17.6-28.8 29.3-0.8 0.7-2.1 1.8-3 2.5-3.6 2.7-7.5 4.2-11.7 5.8-6.6 2.5-13 3.3-19.2 5.5-4.6 1.6-8.9 3.4-12.7 6-0.9 0.7-2.2 1.8-3 2.5-2.2 1.8-3.7 3.8-5.1 5.9-1.4 2.1-2.8 4.3-5 6.4-3.4 3.4-16.3 1-20.9 4.2q-0.8 0.5-1.2 1.2c2.5 1.2 4.2 0.5 7 0.8 0.4 2.7-5.9 4.3-5 5.6z" />
  <path fill-rule="evenodd" class=".mariadb-a"
    d="m106.7 31.4c2.3 2 7.1 0.4 6.3-3.6-3.6-0.3-5.7 1-6.3 3.6z" />
  <path class=".mariadb-a"
    d="m122.7 26.8c-0.6 1.3-1.7 2.9-1.7 6.2 0 0.5-0.5 0.9-0.5 0.1 0.1-3.2 0.9-4.6 1.8-6.4 0.4-0.8 0.7-0.5 0.4 0.1z" />
  <path class=".mariadb-a"
    d="m122.1 26.3c-0.7 1.2-2.4 3.4-2.7 6.7-0.1 0.6-0.5 0.9-0.5 0.1 0.4-3.2 1.7-5.2 2.8-7 0.5-0.7 0.7-0.3 0.4 0.2z" />
  <path class=".mariadb-a"
    d="m121.6 25.6c-0.9 1.2-3.5 3.9-4.1 7.1-0.1 0.6-0.6 0.9-0.4 0 0.5-3.1 2.9-5.6 4.1-7.2 0.5-0.7 0.7-0.4 0.4 0.1z" />
  <path class=".mariadb-a"
    d="m121.1 24.9c-1 1.1-4.2 4.5-5.2 7.6-0.2 0.5-0.7 0.8-0.5-0.1 1.1-3 3.9-6.3 5.3-7.7 0.6-0.6 0.7-0.2 0.4 0.2z" />
</svg>
