<svg version="1.2" xmlns="http://www.w3.org/2000/svg" viewBox="0 0 128 128" width="128" height="128">
  <style>
    .msw-a{opacity:.5;fill:none;stroke:#f33;stroke-width:25.9}.msw-b{fill:none;stroke:currentColor;stroke-width:25.9}</style>
  <path fill-rule="evenodd" class="msw-a"
    d="m96.9 79.5c2.9 3.1 4.2 7.2 4 11.1-0.2 4-1.9 7.9-5.1 10.7-2.8 2.6-6.5 4-10.3 4l-66.7 0.1c-1.4 0-2.6-0.6-3.4-1.4-0.9-0.9-1.4-2.1-1.4-3.4l7-67.1c0.5-4.3 2.6-8 5.7-10.4 3-2.5 7.1-3.9 11.3-3.4 3.8 0.4 7.3 2.2 9.8 5z" />
  <path fill-rule="evenodd" class="msw-b"
    d="m15.1 22.1c-0.9-1-1.3-2.3-1.2-3.5 0-1.2 0.6-2.4 1.6-3.3 0.8-0.8 2-1.2 3.2-1.2l90.5-0.1c1.4 0 2.6 0.5 3.4 1.4 0.9 0.9 1.4 2.1 1.4 3.4l-9.5 90.9c-0.2 1.3-0.8 2.5-1.8 3.2-0.9 0.8-2.2 1.2-3.5 1.1-1.2-0.1-2.3-0.7-3.1-1.6z" />
</svg>
