<svg version="1.2" xmlns="http://www.w3.org/2000/svg" viewBox="0 0 128 128" width="128" height="128">
  <style>.mui-a{fill:currentColor}</style>
  <path fill-rule="evenodd" class="mui-a"
    d="m102.9 83.1q0.4-0.2 0.7-0.5 0.3-0.3 0.5-0.6 0.2-0.4 0.3-0.8 0.1-0.4 0.1-0.8l0.1-18.6q0-0.4 0.1-0.8 0.1-0.4 0.3-0.8 0.2-0.3 0.5-0.6 0.3-0.3 0.7-0.5l10-5.8q0.8-0.4 1.6-0.4 0.9 0 1.6 0.4 0.7 0.4 1.2 1.2 0.4 0.7 0.4 1.6v33.7q0 0.4-0.1 0.8-0.1 0.4-0.3 0.8-0.2 0.3-0.5 0.6-0.3 0.3-0.7 0.5l-37.8 21.8q-0.4 0.2-0.8 0.3-0.4 0.1-0.8 0.1-0.4 0-0.8-0.1-0.4-0.1-0.8-0.3l-29.7-17q-0.3-0.2-0.6-0.5-0.3-0.3-0.6-0.7-0.2-0.4-0.3-0.8-0.1-0.4-0.1-0.8v-17q0 0 0.1 0 0 0 0 0 0-0.1 0-0.1l24.5-14q0-0.1-0.1-0.1 0 0 0 0 0 0 0 0 0 0 0 0 0 0 0 0l0.1-16.7q0-0.8-0.5-1.6-0.4-0.7-1.1-1.1-0.8-0.5-1.6-0.5-0.9 0-1.6 0.5l-18.2 10.5q-0.4 0.2-0.8 0.3-0.4 0.1-0.8 0.1-0.4 0-0.8-0.1-0.4-0.1-0.8-0.3l-18.2-10.6q-0.7-0.4-1.6-0.4-0.9 0-1.6 0.4-0.7 0.5-1.2 1.2-0.4 0.8-0.4 1.6v30.1q0 0.8-0.4 1.6-0.4 0.7-1.2 1.2-0.7 0.4-1.6 0.4-0.8 0-1.6-0.4l-10.1-5.8q-0.4-0.2-0.7-0.5-0.3-0.3-0.5-0.7-0.2-0.4-0.3-0.8-0.1-0.4-0.1-0.8l0.1-52.6q0-0.8 0.4-1.6 0.5-0.7 1.2-1.1 0.7-0.5 1.6-0.5 0.8 0 1.6 0.5l34.6 19.9q0.4 0.2 0.8 0.3 0.4 0.1 0.8 0.1 0.4 0 0.8-0.1 0.4-0.1 0.8-0.3l34.6-19.9q0.8-0.5 1.6-0.5 0.9 0 1.6 0.5 0.8 0.4 1.2 1.1 0.4 0.8 0.4 1.6v52.6q0 0.4-0.1 0.8-0.1 0.5-0.3 0.8-0.2 0.4-0.5 0.7-0.3 0.3-0.7 0.5l-18.1 10.5q-0.8 0.4-1.2 1.1-0.4 0.8-0.4 1.6 0 0.9 0.4 1.6 0.5 0.8 1.2 1.2l10 5.7q0.4 0.2 0.8 0.3 0.4 0.1 0.8 0.1 0.4 0 0.8-0.1 0.4-0.1 0.8-0.3zm2.1-58.9q0-0.4 0.1-0.8 0.1-0.4 0.3-0.8 0.2-0.3 0.5-0.6 0.3-0.3 0.6-0.5l9.6-5.8q0.7-0.4 1.6-0.5 0.9 0 1.6 0.5 0.8 0.4 1.2 1.1 0.4 0.8 0.4 1.6v11.8q0 0.4-0.1 0.8-0.1 0.4-0.3 0.7-0.2 0.4-0.5 0.7-0.3 0.3-0.6 0.5l-9.6 5.8q-0.7 0.4-1.6 0.4-0.9 0-1.6-0.4-0.8-0.4-1.2-1.2-0.4-0.7-0.4-1.6c0 0 0-11.7 0-11.7z" />
</svg>
