<svg version="1.2" xmlns="http://www.w3.org/2000/svg" viewBox="0 0 128 128" width="128" height="128">
  <style>.next-a{fill:currentColor;}</style>
  <path
    class="next-a"
    d="m70.3 0.4c4.9 0.5 9.2 1.4 13.3 2.7 23.1 7.5 40.2 27.7 43.6 51.7 0.6 3.5 0.6 4.5 0.6 9.3 0 4.7 0 5.8-0.6 9.3-1.7 12-6.9 23.3-15 32.6-3.8 4.4-8.6 8.6-13.1 11.5l-0.5 0.4-10.1-15.4c-5.6-8.4-16.9-25.6-25.2-38.1-8.3-12.6-15.2-23-15.4-23.2-0.6-0.8-1.1-0.9-3.6-0.9-2.2 0-2.4 0.1-2.9 0.3-0.3 0.2-0.7 0.5-0.9 0.8l-0.4 0.5v25l-0.1 25 0.3 0.6q0.3 0.6 0.8 0.9l0.6 0.4h2.2c1.9 0 2.2-0.1 2.6-0.3 0.5-0.2 0.8-0.5 1.1-1.1 0.2-0.4 0.2-1.1 0.3-19.1 0-10.3 0.1-18.7 0.1-18.7 0.1 0 5.8 8.5 12.9 18.9l12.8 19 10.2 13.8c5.6 7.6 10.3 13.8 10.4 13.9 0.1 0.1-0.1 0.3-1.2 0.8-7.2 3.7-14.4 5.8-23 6.8-1.9 0.2-10.3 0.2-12.2 0-5-0.6-9.3-1.5-13.5-2.8-23.1-7.5-40.2-27.6-43.6-51.6-0.6-3.5-0.6-4.6-0.6-9.3 0-4.8 0-5.8 0.6-9.3 1.4-10.1 5.2-19.6 11.2-28 10.8-15 27.8-24.8 45.9-26.4 0.8-0.1 1.6-0.2 1.9-0.2 1.1-0.1 9.3 0 10.5 0.2zm13.1 38.2c-2 0-2.2 0-2.7 0.3-0.6 0.3-1 0.8-1.2 1.5-0.1 0.3-0.2 6.3-0.2 16.8v16.3l4 6.1 4 6.1v-22.5c0-15.6 0-22.6-0.1-22.9-0.2-0.6-0.7-1.2-1.3-1.5-0.4-0.2-0.7-0.2-2.5-0.2z" />
  <path
    class="next-a"
    d="m98 118.1c-0.5 0.3-0.6 0.5-0.2 0.3 0.3-0.2 0.7-0.5 0.6-0.5 0 0-0.2 0.1-0.4 0.2zm-0.9 0.6q-0.3 0.3 0.1 0.1c0.1-0.1 0.2-0.2 0.2-0.2 0-0.1 0-0.1-0.3 0.1zm-0.6 0.4q-0.4 0.2 0 0c0.2 0 0.3-0.1 0.3-0.2 0-0.1-0.1 0-0.3 0.2zm-0.6 0.4q-0.4 0.2 0 0c0.2-0.1 0.3-0.2 0.3-0.2 0-0.1-0.1-0.1-0.3 0.2zm-1 0.5c-0.5 0.2-0.4 0.3 0 0.1 0.3-0.1 0.4-0.3 0.4-0.3 0-0.1 0-0.1-0.4 0.2z" />
</svg>
