<svg version="1.2" xmlns="http://www.w3.org/2000/svg" viewBox="0 0 128 128" width="128" height="128">
  <style>.redux-a{fill:currentColor}</style>
  <path
    class="redux-a"
    d="m88.7 87.4c4.7-0.5 8.3-4.6 8.1-9.5-0.1-4.9-4.2-8.8-9.1-8.8h-0.3c-5.1 0.2-9 4.4-8.8 9.5 0.2 2.4 1.1 4.5 2.6 6-5.5 10.9-14 18.9-26.7 25.6-8.6 4.5-17.6 6.2-26.6 5-7.3-1-13-4.2-16.6-9.6-5.2-8-5.7-16.6-1.3-25.2 3.1-6.2 8-10.8 11.1-13.1-0.7-2.1-1.6-5.7-2.1-8.3-23.6 17.1-21.2 40.3-14 51.2 5.3 8.1 16.3 13.2 28.3 13.2 3.3 0 6.5-0.4 9.8-1.2 20.8-4 36.6-16.4 45.6-34.8zm28.7-20.2c-12.4-14.5-30.7-22.5-51.5-22.5h-2.6c-1.5-2.9-4.6-4.9-8-4.9h-0.3c-5.1 0.2-9 4.4-8.8 9.4 0.1 4.9 4.2 8.8 9.1 8.8h0.3c3.6-0.1 6.7-2.4 8-5.5h2.9c12.4 0 24.1 3.6 34.7 10.6 8.2 5.4 14 12.4 17.3 20.8 2.8 6.9 2.6 13.6-0.3 19.3-4.6 8.6-12.2 13.3-22.3 13.3-6.6 0-12.7-1.9-16-3.4-1.8 1.6-5.1 4.2-7.3 5.9 7 3.2 14.1 5 21 5 15.6 0 27.2-8.6 31.6-17.2 4.7-9.5 4.4-25.8-7.8-39.6zm-82.8 22.9c0.2 4.9 4.2 8.8 9.1 8.8h0.4c5-0.1 8.9-4.4 8.8-9.4-0.2-4.9-4.3-8.8-9.2-8.8h-0.3c-0.3 0-0.8 0-1.1 0.1-6.7-11-9.5-23.1-8.5-36.1 0.6-9.8 3.9-18.3 9.6-25.3 4.7-6 13.9-8.9 20-9.1 17.3-0.3 24.6 21.2 25.1 29.8 2.1 0.5 5.7 1.7 8.2 2.5-2-26.4-18.3-40.1-33.9-40.1-14.7 0-28.2 10.6-33.6 26.2-7.5 20.9-2.6 40.9 6.6 56.7-0.9 1.2-1.4 2.9-1.2 4.7z" />
</svg>
