<svg version="1.2" xmlns="http://www.w3.org/2000/svg" viewBox="0 0 128 128" width="128" height="128">
  <defs>
    <linearGradient id="P" gradientUnits="userSpaceOnUse" />
    <linearGradient id="g1" x2="1" href="#P"
      gradientTransform="matrix(71.421,96.995,-88.928,65.481,1.909,11.292)">
      <stop stop-color="#41d1ff" />
      <stop offset="1" stop-color="#bd34fe" />
    </linearGradient>
    <linearGradient id="g2" x2="1" href="#P"
      gradientTransform="matrix(12.92,88.628,-53.724,7.832,60.776,3.75)">
      <stop stop-color="#ffea83" />
      <stop offset=".08" stop-color="#ffdd35" />
      <stop offset="1" stop-color="#ffa800" />
    </linearGradient>
  </defs>
  <style>.a{fill:url(#g1)}.b{fill:url(#g2)}</style>
  <path class="vite-a"
    d="m124.8 19.6l-57.5 102.6c-1.2 2.1-4.2 2.1-5.4 0l-58.6-102.6c-1.3-2.3 0.7-5.1 3.3-4.6l57.5 10.2q0.5 0.1 1.1 0l56.3-10.2c2.6-0.5 4.6 2.3 3.3 4.6z" />
  <path class="vite-b"
    d="m91.5 1.5l-42.5 8.3c-0.7 0.1-1.3 0.7-1.3 1.5l-2.6 44.1c-0.1 1 0.9 1.8 1.9 1.6l11.8-2.7c1.1-0.3 2.1 0.7 1.9 1.8l-3.5 17.2c-0.2 1.1 0.8 2.1 2 1.8l7.3-2.2c1.1-0.4 2.2 0.6 2 1.8l-5.6 27c-0.4 1.7 1.9 2.6 2.8 1.2l0.6-1 34.7-69.1c0.6-1.1-0.4-2.4-1.7-2.2l-12.2 2.4c-1.1 0.2-2.1-0.9-1.8-2l8-27.5c0.3-1.2-0.7-2.2-1.8-2z" />
</svg>
