<svg version="1.2" xmlns="http://www.w3.org/2000/svg" viewBox="0 0 128 128" width="128" height="128">
  <style>
    .vuetify-a{fill:#aeddff}.vuetify-b{fill:#1697f6}.vuetify-c{fill:#1867c0}.vuetify-d{fill:#7bc6ff}</style>
  <path fill-rule="evenodd" class="vuetify-a"
    d="m63.6 126.1c-34 0-61.5-27.7-61.5-62.1 0-34.4 27.5-62.2 61.5-62.2 33.9 0 61.4 27.8 61.4 62.2 0 34.4-27.5 62.1-61.4 62.1zm60.2-62.1c0-33.7-26.9-60.9-60.2-60.9-33.3 0-60.3 27.2-60.3 60.9 0 33.7 27 60.9 60.3 60.9 33.3 0 60.2-27.2 60.2-60.9z" />
  <path class="vuetify-b"
    d="m92.2 13.4c-1.9 0-3.5-1.6-3.5-3.6 0-2 1.6-3.6 3.5-3.6 2 0 3.5 1.6 3.5 3.6 0 2-1.5 3.6-3.5 3.6z" />
  <path class="vuetify-b"
    d="m34.9 121.8c-1.9 0-3.5-1.6-3.5-3.6 0-2 1.6-3.6 3.5-3.6 2 0 3.5 1.6 3.5 3.6 0 2-1.5 3.6-3.5 3.6z" />
  <path class="vuetify-b" d="m64.5 55.3l-18.3 32.2 17.4 30.5 23-40.4 23.1-40.4h-34.9z" />
  <path class="vuetify-a" d="m40.5 77.6l1.2 2.1 17.2-30.1 7.1-12.4h-2.4-46.1z" />
  <path class="vuetify-c" d="m74.8 37.2c8.8 29-11.2 80.8-11.2 80.8l-17.4-30.5z" />
  <path class="vuetify-d" d="m66 37.2c-36.7 0-24.3 42.5-24.3 42.5z" />
</svg>
