<svg version="1.2" xmlns="http://www.w3.org/2000/svg" viewBox="0 0 128 128" width="128" height="128">
  <style>.vuex-a{fill:transparent}.vuex-b{fill:currentColor}.vuex-c{fill:#35495e}</style>
  <path fill-rule="evenodd" class="vuex-a"
    d="m-21.2 149.3v-170.6h170.4v170.6zm98-123.5q-0.1 0.1-0.2 0.3-6.2 12.2-12.3 24.5-0.1 0.2-0.3 0.5-0.1-0.3-0.2-0.5-6.1-12.2-12.2-24.4c-0.1-0.1-0.2-0.3-0.3-0.5-0.1-0.2-0.2-0.4-0.3-0.6q-6.1-12.3-12.3-24.7c-0.1-0.3-0.3-0.4-0.6-0.4q-18.8 0-37.5 0-0.2 0-0.5 0c0.1 0.2 0.2 0.4 0.3 0.6q14.7 29.5 29.4 59 1.1 2.2 2.2 4.5 0 0-0.1 0.1-15.1 30.4-30.3 60.8c-0.5 1-1 2-1.5 3h0.5q18.7 0 37.5 0c0.3 0 0.5-0.1 0.6-0.4q1.8-3.6 3.6-7.3 1.8-3.6 3.7-7.3 1.8-3.6 3.6-7.3 1.8-3.6 3.6-7.3 1.7-3.3 3.4-6.6 1.8-3.7 3.7-7.4 1.7-3.5 3.5-7 0.1-0.2 0.2-0.5c0.1 0.2 0.2 0.3 0.3 0.4q6.3 12.7 12.6 25.4 6.3 12.5 12.5 25c0.1 0.2 0.2 0.3 0.5 0.3q18.8 0 37.6 0 0.2 0 0.5 0-0.1-0.3-0.2-0.5-14.8-29.5-29.5-59.1-1.1-2.2-2.2-4.5 0.1-0.2 0.2-0.4 15.7-31.5 31.4-63c0.1-0.1 0.2-0.3 0.3-0.5h-12.1q-12.9 0-25.9 0c-0.3 0-0.5 0.1-0.7 0.4q-6.1 12.4-12.3 24.9c-0.1 0.1-0.1 0.3-0.2 0.5z" />
  <path class="vuex-b"
    d="m96 64q1.1 2.2 2.2 4.4 14.8 29.6 29.5 59.1 0.1 0.2 0.2 0.5-0.2 0-0.4 0-18.8 0-37.6 0c-0.3 0-0.4-0.1-0.5-0.3q-6.3-12.5-12.5-25-6.4-12.7-12.7-25.4c0-0.1-0.1-0.2-0.2-0.4q-0.2 0.3-0.3 0.5-1.7 3.5-3.4 7-1.9 3.7-3.8 7.4-1.6 3.3-3.3 6.6-1.8 3.7-3.6 7.3-1.9 3.7-3.7 7.3-1.8 3.7-3.6 7.3-1.8 3.7-3.6 7.3c-0.2 0.3-0.3 0.4-0.6 0.4q-18.8 0-37.6 0h-0.5c0.6-1 1-2 1.5-3q15.2-30.4 30.4-60.8 0-0.1 0.1-0.2 0.2-0.3 0.3-0.5 9.3-18.6 18.6-37.2c0.1-0.2 0.2-0.4 0.3-0.5 0.1 0.1 0.3 0.3 0.4 0.4q6 12.2 12.1 24.4 0.1 0.2 0.3 0.5 0.1-0.3 0.3-0.5 6.1-12.3 12.2-24.5 0.1-0.2 0.3-0.3 0.2 0.2 0.3 0.5 9.3 18.6 18.6 37.2 0.1 0.2 0.3 0.5z" />
  <path class="vuex-c"
    d="m96 64q-0.2-0.2-0.3-0.5-9.3-18.6-18.6-37.2-0.1-0.3-0.3-0.5 0-0.3 0.1-0.5 6.2-12.5 12.4-24.9c0.2-0.3 0.3-0.4 0.7-0.4q13 0 25.9 0h12c-0.1 0.2-0.1 0.4-0.2 0.5q-15.7 31.5-31.4 63-0.1 0.2-0.3 0.5zm-44.8-38.3c-0.1 0.2-0.2 0.4-0.3 0.6q-9.3 18.6-18.6 37.2-0.1 0.2-0.3 0.5-1.1-2.2-2.2-4.4-14.7-29.5-29.5-59c0-0.2-0.1-0.4-0.2-0.6q0.3 0 0.5 0 18.7 0 37.4 0c0.4 0 0.5 0.1 0.7 0.4q6.1 12.4 12.3 24.7c0.1 0.2 0.2 0.4 0.2 0.6z" />
</svg>
